<?xml version="1.0" encoding="UTF-8" standalone="no"?>
<svg
   width="1.76671in"
   height="1.7427in"
   viewBox="0 0 127.203 125.474"
   xml:space="preserve"
   color-interpolation-filters="sRGB"
   class="st5"
   version="1.1"
   id="svg22"
   sodipodi:docname="DingWK - 副本.svg"
   inkscape:export-filename="d:\HNS-DWK\Pictures\dwk\DingWK - 副本.png"
   inkscape:export-xdpi="2246.97"
   inkscape:export-ydpi="2246.97"
   inkscape:version="1.1.2 (b8e25be833, 2022-02-05)"
   xmlns:inkscape="http://www.inkscape.org/namespaces/inkscape"
   xmlns:sodipodi="http://sodipodi.sourceforge.net/DTD/sodipodi-0.dtd"
   xmlns="http://www.w3.org/2000/svg"
   xmlns:svg="http://www.w3.org/2000/svg"><sodipodi:namedview
   id="namedview11"
   pagecolor="#ffffff"
   bordercolor="#666666"
   borderopacity="1.0"
   inkscape:pageshadow="2"
   inkscape:pageopacity="0.0"
   inkscape:pagecheckerboard="0"
   inkscape:document-units="in"
   showgrid="false"
   inkscape:zoom="2.4267899"
   inkscape:cx="62.222116"
   inkscape:cy="77.262561"
   inkscape:window-width="1920"
   inkscape:window-height="1001"
   inkscape:window-x="-9"
   inkscape:window-y="-9"
   inkscape:window-maximized="1"
   inkscape:current-layer="svg22" />
	<style
   type="text/css"
   id="style2">
		<![CDATA[
		.st1 {
			fill: none;
			stroke: none;
			stroke-linecap: round;
			stroke-linejoin: round;
			stroke-width: 0.75
		}

		.st2 {
			visibility: visible
		}

		.st3 {
			fill: #000000;
			fill-opacity: 0.4;
			filter: url(#filter_2.6666667461395);
			stroke: none;
			stroke-linecap: round;
			stroke-linejoin: round
		}

		.st4 {
			fill: #3b2e7e;
			stroke: none;
			stroke-linecap: round;
			stroke-linejoin: round;
			stroke-width: 0.75
		}

		.st5 {
			fill: none;
			fill-rule: evenodd;
			font-size: 12px;
			overflow: visible;
			stroke-linecap: square;
			stroke-miterlimit: 3
		}
		]]>
	</style>

	<defs
   id="Filters">
		<filter
   id="filter_2.6666667461395"
   x="-0.057918952"
   y="-0.062720504"
   width="1.1158379"
   height="1.125441">
			<feGaussianBlur
   stdDeviation="2.6666667461395"
   id="feGaussianBlur4" />
		</filter>





	</defs>
	<g
   id="g1405"
   inkscape:export-filename="d:\HNS-DWK\Pictures\dwk\g1405.png"
   inkscape:export-xdpi="2246.97"
   inkscape:export-ydpi="2246.97"><rect
     style="fill:#f9f9f9;stroke-width:1.39272"
     id="rect850"
     width="127.01953"
     height="125.47427"
     x="0.30906063"
     y="-0.00014040089"
     ry="0"
     inkscape:export-filename="d:\HNS-DWK\Pictures\dwk\rect850.png"
     inkscape:export-xdpi="2246.97"
     inkscape:export-ydpi="2246.97" /><g
     id="shape194-4"
     transform="translate(10.06164,-11.7136)"
     inkscape:export-filename="d:\HNS-DWK\Pictures\dwk\rect850.png"
     inkscape:export-xdpi="2246.97"
     inkscape:export-ydpi="2246.97">
		<g
   id="shadow194-5"
   transform="translate(2.12132,2.12132)"
   class="st2">
			<path
   d="M 90.14,50.36 76.88,72.25 90.14,98.55 H 73.24 L 61.8,71.96 74.76,50.36 Z M 48.76,98.32 v 27.15 h 11.33 a 51.0237,51.0237 -180 0 0 0,-102.04 H 60.01 48.76 V 50.36 H 60 v 33.83 c 0,4.22 -1.3,7.67 -3.91,10.38 -1.98,2.02 -4.43,3.27 -7.33,3.75 z M 45.59,81.64 V 23.43 H 0 V 125.47 H 45.59 V 98.54 c -4.81,-0.09 -8.51,-2.32 -11.11,-6.68 -1.54,2.33 -3.22,4.03 -5.05,5.12 -1.83,1.04 -4.17,1.57 -7.01,1.57 -4.34,0 -7.67,-1.33 -9.98,-3.98 C 10.13,91.91 8.97,88.05 8.97,82.98 V 50.36 h 14.39 v 30.49 c 0,1.42 0.09,2.41 0.28,2.98 0.25,0.52 0.75,0.78 1.52,0.78 1.45,0 2.17,-1.18 2.17,-3.55 v -30.7 h 14.31 v 30.49 c 0,1.47 0.12,2.46 0.36,2.98 0.29,0.52 0.8,0.78 1.52,0.78 1.24,0 1.93,-0.99 2.07,-2.97 z"
   class="st3"
   id="path13" />
		</g>
		<path
   d="M 90.14,50.36 76.88,72.25 90.14,98.55 H 73.24 L 61.8,71.96 74.76,50.36 Z M 48.76,98.32 v 27.15 h 11.33 a 51.0237,51.0237 -180 0 0 0,-102.04 H 60.01 48.76 V 50.36 H 60 v 33.83 c 0,4.22 -1.3,7.67 -3.91,10.38 -1.98,2.02 -4.43,3.27 -7.33,3.75 z M 45.59,81.64 V 23.43 H 0 V 125.47 H 45.59 V 98.54 c -4.81,-0.09 -8.51,-2.32 -11.11,-6.68 -1.54,2.33 -3.22,4.03 -5.05,5.12 -1.83,1.04 -4.17,1.57 -7.01,1.57 -4.34,0 -7.67,-1.33 -9.98,-3.98 C 10.13,91.91 8.97,88.05 8.97,82.98 V 50.36 h 14.39 v 30.49 c 0,1.42 0.09,2.41 0.28,2.98 0.25,0.52 0.75,0.78 1.52,0.78 1.45,0 2.17,-1.18 2.17,-3.55 v -30.7 h 14.31 v 30.49 c 0,1.47 0.12,2.46 0.36,2.98 0.29,0.52 0.8,0.78 1.52,0.78 1.24,0 1.93,-0.99 2.07,-2.97 z"
   class="st4"
   id="path16" />
	</g></g>
</svg>
